<svg xmlns="http://www.w3.org/2000/svg" id="sv" width="180" height="180" viewBox="0 0 180 180"><path id="0" fill="#cccccc" d="M90, 0 A90,90 0 0 1 179.99999991432634,89.99607300918427 L149.99999994288424,89.99738200612285 A60,60 0 0 0 90,30 Z"></path><path id="1" fill="#df9e2f" d="M179.99999991432634, 89.99607300918427 A90,90 0 0 1 90.00785398162398,179.9999996573054 L90.00523598774932,149.99999977153692 A60,60 0 0 0 149.99999994288424,89.99738200612285 Z"></path><path id="2" fill="#8b0775" d="M90.00785398162398, 179.9999996573054 A90,90 0 0 1 7.710628437962441e-7,90.01178097241731 L30.000000514041893,90.00785398161155 A60,60 0 0 0 90.00523598774932,149.99999977153692 Z"></path><path id="3" fill="#1b6fff" d="M7.710628437962441e-7, 90.01178097241731 A90,90 0 0 1 89.98429203681187,0.0000013707783779182137 L89.98952802454124,30.000000913852254 A60,60 0 0 0 30.000000514041893,90.00785398161155 Z"></path></svg>